<svg xmlns="http://www.w3.org/2000/svg" viewBox="0 0 32 32">
  <rect width="32" height="32" rx="6" fill="#050505"/>
  <path d="M 6.5 4.5 C 9.1 4.5 11.2 6.57 11.2 9.12 L 11.2 12.69 C 11.2 13.26 10.72 13.73 10.13 13.73 C 9.55 13.73 9.07 13.26 9.07 12.69 L 9.07 9.12 C 9.07 7.73 7.92 6.6 6.5 6.6 C 5.08 6.6 3.93 7.73 3.93 9.12 L 3.93 12.69 C 3.93 13.26 3.45 13.73 2.87 13.73 C 2.28 13.73 1.8 13.26 1.8 12.69 L 1.8 9.12 C 1.8 6.57 3.9 4.5 6.5 4.5 Z" fill="#FFFBF4"/>
  <path d="M 20.8 8.27 C 20.87 8.73 20.72 9.17 20.42 9.52 C 20.12 9.85 19.69 10.05 19.24 10.05 L 13.77 10.05 C 14.18 10.91 15.08 11.53 16.11 11.53 C 16.74 11.53 17.34 11.31 17.81 10.91 C 18.02 10.73 18.28 10.65 18.53 10.65 C 18.83 10.65 19.13 10.76 19.33 11 C 19.73 11.44 19.67 12.1 19.22 12.48 C 18.39 13.18 17.3 13.62 16.11 13.62 C 13.51 13.62 11.4 11.55 11.4 9.04 C 11.4 6.48 13.51 4.41 16.11 4.41 C 18.47 4.41 20.41 6.1 20.8 8.27 Z M 13.77 7.94 L 18.47 7.94 C 18.04 7.04 17.12 6.47 16.11 6.47 C 15.08 6.47 14.18 7.04 13.77 7.94 Z" fill="#FFFBF4"/>
  <path d="M 14.2 18.5 C 16.8 18.5 18.9 20.57 18.9 23.12 L 18.9 26.69 C 18.9 27.26 18.42 27.73 17.83 27.73 C 17.25 27.73 16.77 27.26 16.77 26.69 L 16.77 23.12 C 16.77 21.73 15.62 20.6 14.2 20.6 C 12.78 20.6 11.63 21.73 11.63 23.12 L 11.63 26.69 C 11.63 27.26 11.15 27.73 10.57 27.73 C 9.98 27.73 9.5 27.26 9.5 26.69 L 9.5 23.12 C 9.5 20.57 11.6 18.5 14.2 18.5 Z" fill="#FFFBF4"/>
  <path d="M 28.5 22.27 C 28.57 22.73 28.42 23.17 28.12 23.52 C 27.82 23.85 27.39 24.05 26.94 24.05 L 21.47 24.05 C 21.88 24.91 22.78 25.53 23.81 25.53 C 24.44 25.53 25.04 25.31 25.51 24.91 C 25.72 24.73 25.98 24.65 26.23 24.65 C 26.53 24.65 26.83 24.76 27.03 25 C 27.43 25.44 27.37 26.1 26.92 26.48 C 26.09 27.18 25 27.62 23.81 27.62 C 21.21 27.62 19.1 25.55 19.1 23.04 C 19.1 20.48 21.21 18.41 23.81 18.41 C 26.17 18.41 28.11 20.1 28.5 22.27 Z M 21.47 21.94 L 26.17 21.94 C 25.74 21.04 24.82 20.47 23.81 20.47 C 22.78 20.47 21.88 21.04 21.47 21.94 Z" fill="#FFFBF4"/>
</svg>
